<mxfile host="drawio-plugin" modified="2023-01-10T15:43:15.325Z" agent="5.0 (Macintosh; Intel Mac OS X 10_15_7) AppleWebKit/537.36 (KHTML, like Gecko) Chrome/104.0.5112.102 Safari/537.36" etag="crtvLl7tImT6E6LPoNIb" version="20.5.3" type="embed"><diagram id="KxL09ay4ThYrcd4F0qCT" name="Architecture Overview"><mxGraphModel dx="1836" dy="813" grid="1" gridSize="10" guides="1" tooltips="1" connect="1" arrows="1" fold="1" page="1" pageScale="1" pageWidth="827" pageHeight="1169" math="0" shadow="0"><root><mxCell id="0"/><mxCell id="1" parent="0"/><mxCell id="C4bWNBzeB97YTZXgwAGl-7" value="Triggers pipeline" style="edgeStyle=orthogonalEdgeStyle;rounded=0;orthogonalLoop=1;jettySize=auto;html=1;" parent="1" source="C4bWNBzeB97YTZXgwAGl-1" target="C4bWNBzeB97YTZXgwAGl-3" edge="1"><mxGeometry x="-0.2973" relative="1" as="geometry"><mxPoint as="offset"/></mxGeometry></mxCell><mxCell id="C4bWNBzeB97YTZXgwAGl-8" value="Configure&lt;br&gt;personal access token" style="edgeStyle=orthogonalEdgeStyle;rounded=0;orthogonalLoop=1;jettySize=auto;html=1;entryX=0;entryY=0.5;entryDx=0;entryDy=0;entryPerimeter=0;curved=1;dashed=1;dashPattern=1 2;" parent="1" source="C4bWNBzeB97YTZXgwAGl-1" target="C4bWNBzeB97YTZXgwAGl-2" edge="1"><mxGeometry x="-0.2047" y="-10" relative="1" as="geometry"><Array as="points"><mxPoint x="90" y="169"/></Array><mxPoint as="offset"/></mxGeometry></mxCell><mxCell id="C4bWNBzeB97YTZXgwAGl-1" value="&lt;b&gt;Github&lt;/b&gt;&lt;br&gt;&lt;br&gt;Repository push" style="dashed=0;outlineConnect=0;html=1;align=center;labelPosition=center;verticalLabelPosition=bottom;verticalAlign=top;shape=mxgraph.weblogos.github" parent="1" vertex="1"><mxGeometry x="-10" y="330" width="75" height="75" as="geometry"/></mxCell><mxCell id="C4bWNBzeB97YTZXgwAGl-2" value="&lt;b&gt;AWS Secrets Manager&lt;br&gt;&lt;br&gt;&lt;br&gt;&lt;/b&gt;" style="sketch=0;points=[[0,0,0],[0.25,0,0],[0.5,0,0],[0.75,0,0],[1,0,0],[0,1,0],[0.25,1,0],[0.5,1,0],[0.75,1,0],[1,1,0],[0,0.25,0],[0,0.5,0],[0,0.75,0],[1,0.25,0],[1,0.5,0],[1,0.75,0]];outlineConnect=0;fontColor=#232F3E;gradientColor=#F54749;gradientDirection=north;fillColor=#C7131F;strokeColor=#ffffff;dashed=0;verticalLabelPosition=bottom;verticalAlign=top;align=center;html=1;fontSize=12;fontStyle=0;aspect=fixed;shape=mxgraph.aws4.resourceIcon;resIcon=mxgraph.aws4.secrets_manager;" parent="1" vertex="1"><mxGeometry x="250" y="130" width="78" height="78" as="geometry"/></mxCell><mxCell id="C4bWNBzeB97YTZXgwAGl-9" style="rounded=0;orthogonalLoop=1;jettySize=auto;html=1;" parent="1" source="C4bWNBzeB97YTZXgwAGl-3" target="C4bWNBzeB97YTZXgwAGl-4" edge="1"><mxGeometry relative="1" as="geometry"/></mxCell><mxCell id="C4bWNBzeB97YTZXgwAGl-12" style="edgeStyle=none;rounded=0;orthogonalLoop=1;jettySize=auto;html=1;startSize=6;targetPerimeterSpacing=18;" parent="1" source="C4bWNBzeB97YTZXgwAGl-3" target="C4bWNBzeB97YTZXgwAGl-2" edge="1"><mxGeometry relative="1" as="geometry"/></mxCell><mxCell id="C4bWNBzeB97YTZXgwAGl-3" value="&lt;b&gt;AWS CodeBuild&lt;/b&gt;&lt;br&gt;&lt;br&gt;Run: cdk synth (pipeline)" style="sketch=0;points=[[0,0,0],[0.25,0,0],[0.5,0,0],[0.75,0,0],[1,0,0],[0,1,0],[0.25,1,0],[0.5,1,0],[0.75,1,0],[1,1,0],[0,0.25,0],[0,0.5,0],[0,0.75,0],[1,0.25,0],[1,0.5,0],[1,0.75,0]];outlineConnect=0;fontColor=#232F3E;gradientColor=#4D72F3;gradientDirection=north;fillColor=#3334B9;strokeColor=#ffffff;dashed=0;verticalLabelPosition=bottom;verticalAlign=top;align=center;html=1;fontSize=12;fontStyle=0;aspect=fixed;shape=mxgraph.aws4.resourceIcon;resIcon=mxgraph.aws4.codebuild;" parent="1" vertex="1"><mxGeometry x="250" y="328.5" width="78" height="78" as="geometry"/></mxCell><mxCell id="C4bWNBzeB97YTZXgwAGl-10" style="edgeStyle=none;rounded=0;orthogonalLoop=1;jettySize=auto;html=1;" parent="1" source="C4bWNBzeB97YTZXgwAGl-4" target="C4bWNBzeB97YTZXgwAGl-5" edge="1"><mxGeometry relative="1" as="geometry"/></mxCell><mxCell id="C4bWNBzeB97YTZXgwAGl-4" value="&lt;b&gt;AWS CloudFormation&lt;/b&gt;&lt;br&gt;&lt;br&gt;Run: cdk deploy pipeline" style="sketch=0;points=[[0,0,0],[0.25,0,0],[0.5,0,0],[0.75,0,0],[1,0,0],[0,1,0],[0.25,1,0],[0.5,1,0],[0.75,1,0],[1,1,0],[0,0.25,0],[0,0.5,0],[0,0.75,0],[1,0.25,0],[1,0.5,0],[1,0.75,0]];points=[[0,0,0],[0.25,0,0],[0.5,0,0],[0.75,0,0],[1,0,0],[0,1,0],[0.25,1,0],[0.5,1,0],[0.75,1,0],[1,1,0],[0,0.25,0],[0,0.5,0],[0,0.75,0],[1,0.25,0],[1,0.5,0],[1,0.75,0]];outlineConnect=0;fontColor=#232F3E;gradientColor=#F34482;gradientDirection=north;fillColor=#BC1356;strokeColor=#ffffff;dashed=0;verticalLabelPosition=bottom;verticalAlign=top;align=center;html=1;fontSize=12;fontStyle=0;aspect=fixed;shape=mxgraph.aws4.resourceIcon;resIcon=mxgraph.aws4.cloudformation;" parent="1" vertex="1"><mxGeometry x="440" y="327" width="78" height="78" as="geometry"/></mxCell><mxCell id="C4bWNBzeB97YTZXgwAGl-11" style="edgeStyle=none;rounded=0;orthogonalLoop=1;jettySize=auto;html=1;" parent="1" source="C4bWNBzeB97YTZXgwAGl-5" target="C4bWNBzeB97YTZXgwAGl-6" edge="1"><mxGeometry relative="1" as="geometry"/></mxCell><mxCell id="C4bWNBzeB97YTZXgwAGl-5" value="&lt;b&gt;AWS CodeBuild&lt;/b&gt;&lt;br&gt;&lt;br&gt;Run: cdk synth (app/stage)" style="sketch=0;points=[[0,0,0],[0.25,0,0],[0.5,0,0],[0.75,0,0],[1,0,0],[0,1,0],[0.25,1,0],[0.5,1,0],[0.75,1,0],[1,1,0],[0,0.25,0],[0,0.5,0],[0,0.75,0],[1,0.25,0],[1,0.5,0],[1,0.75,0]];outlineConnect=0;fontColor=#232F3E;gradientColor=#4D72F3;gradientDirection=north;fillColor=#3334B9;strokeColor=#ffffff;dashed=0;verticalLabelPosition=bottom;verticalAlign=top;align=center;html=1;fontSize=12;fontStyle=0;aspect=fixed;shape=mxgraph.aws4.resourceIcon;resIcon=mxgraph.aws4.codebuild;" parent="1" vertex="1"><mxGeometry x="630" y="327" width="78" height="78" as="geometry"/></mxCell><mxCell id="C4bWNBzeB97YTZXgwAGl-6" value="&lt;b&gt;AWS CloudFormation&lt;/b&gt;&lt;br&gt;&lt;br&gt;Run: cdk deploy &amp;lt;app/stage&amp;gt;" style="sketch=0;points=[[0,0,0],[0.25,0,0],[0.5,0,0],[0.75,0,0],[1,0,0],[0,1,0],[0.25,1,0],[0.5,1,0],[0.75,1,0],[1,1,0],[0,0.25,0],[0,0.5,0],[0,0.75,0],[1,0.25,0],[1,0.5,0],[1,0.75,0]];points=[[0,0,0],[0.25,0,0],[0.5,0,0],[0.75,0,0],[1,0,0],[0,1,0],[0.25,1,0],[0.5,1,0],[0.75,1,0],[1,1,0],[0,0.25,0],[0,0.5,0],[0,0.75,0],[1,0.25,0],[1,0.5,0],[1,0.75,0]];outlineConnect=0;fontColor=#232F3E;gradientColor=#F34482;gradientDirection=north;fillColor=#BC1356;strokeColor=#ffffff;dashed=0;verticalLabelPosition=bottom;verticalAlign=top;align=center;html=1;fontSize=12;fontStyle=0;aspect=fixed;shape=mxgraph.aws4.resourceIcon;resIcon=mxgraph.aws4.cloudformation;" parent="1" vertex="1"><mxGeometry x="820" y="325.5" width="78" height="78" as="geometry"/></mxCell><mxCell id="C4bWNBzeB97YTZXgwAGl-13" value="AWS Cloud" style="points=[[0,0],[0.25,0],[0.5,0],[0.75,0],[1,0],[1,0.25],[1,0.5],[1,0.75],[1,1],[0.75,1],[0.5,1],[0.25,1],[0,1],[0,0.75],[0,0.5],[0,0.25]];outlineConnect=0;gradientColor=none;html=1;whiteSpace=wrap;fontSize=12;fontStyle=0;container=1;pointerEvents=0;collapsible=0;recursiveResize=0;shape=mxgraph.aws4.group;grIcon=mxgraph.aws4.group_aws_cloud_alt;strokeColor=#232F3E;fillColor=none;verticalAlign=top;align=left;spacingLeft=30;fontColor=#232F3E;dashed=0;" parent="1" vertex="1"><mxGeometry x="180" y="20" width="790" height="480" as="geometry"/></mxCell><mxCell id="2" value="Central Deployment Account" style="points=[[0,0],[0.25,0],[0.5,0],[0.75,0],[1,0],[1,0.25],[1,0.5],[1,0.75],[1,1],[0.75,1],[0.5,1],[0.25,1],[0,1],[0,0.75],[0,0.5],[0,0.25]];outlineConnect=0;gradientColor=none;html=1;whiteSpace=wrap;fontSize=12;fontStyle=0;container=1;pointerEvents=0;collapsible=0;recursiveResize=0;shape=mxgraph.aws4.group;grIcon=mxgraph.aws4.group_account;strokeColor=#CD2264;fillColor=none;verticalAlign=top;align=left;spacingLeft=30;fontColor=#CD2264;dashed=0;" vertex="1" parent="1"><mxGeometry x="200" y="60" width="750" height="410" as="geometry"/></mxCell></root></mxGraphModel></diagram></mxfile>